<svg version="1.0" xmlns="http://www.w3.org/2000/svg" width="376" height="376" viewBox="0 0 376 376" preserveAspectRatio="xMidYMid meet">
 <g fill="#00a2e8">
  <path d="M178 374.3 c-8.1 -0.6 -21.3 -2.4 -29 -3.9 -7.7 -1.6 -31.1 -8.7 -34.2 -10.4 -1 -0.6 -2.2 -1 -2.8 -1 -2 0 -28.2 -16 -37.2 -22.8 -15.3 -11.5 -35 -32.6 -43.4 -46.5 -1.6 -2.7 -3.7 -6.1 -4.6 -7.5 -2.5 -4 -12.8 -25.1 -12.8 -26.3 0 -0.4 -0.5 -2 -1.2 -3.6 -3.3 -7.9 -7.7 -25.7 -9.4 -37.8 -1.6 -12.2 -1.8 -42.8 -0.3 -52.7 1.7 -10.7 7 -31.5 9.7 -38.1 0.7 -1.6 1.2 -3.2 1.2 -3.7 0 -0.5 0.6 -2.1 1.4 -3.7 0.8 -1.5 3.1 -6.2 5.1 -10.3 11.8 -23.9 31.6 -48.5 51.5 -64 3.6 -2.8 8.1 -6.3 10 -7.8 5.3 -4.2 29 -17.2 31.3 -17.2 0.4 0 2.7 -0.9 4.9 -2 2.3 -1.1 4.7 -2 5.2 -2 0.6 -0.1 2.9 -0.9 5.1 -2 2.2 -1.1 4.9 -1.9 6.1 -2 1.1 0 2.4 -0.4 3 -1 0.5 -0.5 4.3 -1.4 8.4 -2 4.1 -0.6 8.6 -1.6 9.9 -2.3 3.4 -1.7 60.8 -1.7 64.2 0 1.3 0.7 5.8 1.7 9.8 2.3 4.1 0.6 8 1.5 8.5 1.9 0.6 0.5 2.7 1.2 4.6 1.6 1.9 0.4 4.1 1.1 5 1.5 0.8 0.4 4.2 1.8 7.5 3 6.6 2.5 22.2 10.1 27 13.1 1.7 1 3.7 2.2 4.5 2.6 9.7 4.6 37.2 29.2 47.8 42.8 5.4 7 11.2 15.3 11.2 16.2 0 0.3 0.6 1.4 1.4 2.2 1.4 1.6 11 20 13.3 25.6 4.3 10.5 10.2 31.4 11.3 40.5 0.5 3.6 1.3 7.8 1.9 9.3 1.3 3.4 1.5 40.3 0.2 41.1 -0.4 0.3 -1.1 3.6 -1.5 7.3 -0.8 8.5 -6.6 30.7 -10.5 40.5 -13.1 32.9 -34.2 61 -61.1 81.2 -12.5 9.4 -13.2 9.9 -29.5 18.1 -17.2 8.6 -17.4 8.7 -31 12.5 -21.7 6.1 -44 8.7 -62.5 7.3z m42.4 -13.3 c12 -2.6 26.9 -7.2 35.6 -11.1 l6.4 -3 -6.9 -6.2 c-25.8 -22.9 -43.3 -48.6 -54 -78.9 l-4.1 -11.7 -3.2 10.2 c-5.7 18 -17.2 39.6 -30 56.4 -6.8 9 -23.3 25.8 -31 31.6 -2.9 2.2 -4.9 4.3 -4.5 4.8 2.2 2 26 8.1 40.8 10.3 1.7 0.2 11.6 0.3 22 0.1 14.7 -0.3 21.3 -0.8 28.9 -2.5z m-115.4 -30.1 c0 -41.6 18.2 -87.6 47.5 -119.8 2.2 -2.5 3.5 -4.2 2.9 -3.8 -0.6 0.4 -6.7 1.6 -13.5 2.7 -15.8 2.6 -46.8 2.8 -62.8 0.4 -20.1 -2.9 -39.9 -9.1 -56.8 -17.8 l-10.3 -5.3 0 7 c0 8 2.3 23.8 5.1 34.9 5.7 22.6 16.2 44.4 31.2 64.3 7 9.3 24.5 27 33.4 33.8 6.4 4.9 21.3 14.5 22.6 14.6 0.4 0.1 0.7 -4.9 0.7 -11z m27.9 -4.5 c11.4 -10.8 19.9 -21 27.8 -33.2 16.1 -24.9 26.5 -55.7 28 -83.1 l0.6 -10.5 -3.4 2.4 c-5.8 4 -24.2 23.1 -30.5 31.5 -14.3 19.1 -23.7 37.7 -30 59.4 -3.1 10.8 -6.4 30.7 -6.4 38.9 0 5.8 0.1 6.2 1.9 5.3 1 -0.6 6.4 -5.4 12 -10.7z m160 1.9 c41.2 -31 68.5 -81.4 70.8 -130.6 l0.6 -11.9 -7.1 3.6 c-16 8.1 -35.1 14 -54.8 17 -16.6 2.6 -56.1 1.9 -66.9 -1.1 -1.4 -0.4 -0.9 0.7 2.1 3.8 26.6 28.3 46.4 77.8 46.4 115.8 0 5 0.3 9.1 0.7 9.1 0.3 0 4 -2.6 8.2 -5.7z m-23.3 -6 c-1.4 -18.9 -8.4 -44.1 -16.9 -61 -10 -20 -19.9 -33.6 -35.6 -49.3 l-11.6 -11.5 -0.3 3.9 c-0.4 4.6 2.2 22.2 4.9 32.8 5.7 22.7 16.2 44.4 31.2 64.3 5.7 7.6 26.7 29.5 28.3 29.5 0.4 0 0.4 -3.9 0 -8.7z m-128.1 -127.3 c11.7 -2.5 34.5 -9.8 34.5 -11.1 0 -0.5 -0.3 -0.9 -0.8 -0.9 -0.4 0 -4.5 -2.5 -9.2 -5.5 -26.3 -17.1 -73.9 -22.3 -113.5 -12.3 -8.1 2 -26.4 8.4 -27.8 9.7 -1.1 1.1 21.4 11.5 32.4 15 8.3 2.6 23.3 6 33.4 7.5 1.7 0.2 11.6 0.3 22 0.1 14.7 -0.3 21.3 -0.8 29 -2.5z m162.9 -4 c13.9 -3 27.5 -7.4 38.9 -12.8 6.6 -3.1 9.4 -4.8 8.4 -5.3 -3.2 -1.9 -20.1 -6.1 -31.2 -7.9 -33.1 -5.4 -70.8 0.5 -101.3 15.9 l-5.7 2.9 8.2 2.6 c7.1 2.2 22.3 5.6 31.8 7 1.7 0.2 11.6 0.3 22 0.1 14.7 -0.3 21.3 -0.8 28.9 -2.5z m-107.5 -10.6 c-0.9 -1.1 -1.5 -1.2 -2.5 -0.3 -1.1 0.9 -1.2 1.5 -0.3 2.5 0.9 1.1 1.5 1.2 2.5 0.3 1.1 -0.9 1.2 -1.5 0.3 -2.5z m-12.9 -22.2 c-5.9 -23.1 -15.7 -43.5 -30.7 -63.9 -11.3 -15.5 -34.9 -36.8 -50.4 -45.7 l-4.6 -2.6 0.8 4.4 c7 37.8 30 76.3 60.9 102.3 6.8 5.6 25.2 15.9 25.8 14.3 0.2 -0.4 -0.6 -4.4 -1.8 -8.8z m31.3 3.1 c32.5 -24.9 57.2 -63.7 66 -103.6 l1.5 -6.8 -3.6 2.7 c-29.8 22.1 -51 50 -63.5 83.4 -5.1 13.8 -8.9 29 -7.1 29 0.3 0 3.3 -2.1 6.7 -4.7z m-183.8 -5.9 c10.3 -3.6 20.7 -6.1 32.6 -7.8 17.3 -2.6 55.7 -1.9 66.4 1.1 1.4 0.4 0.9 -0.7 -2.1 -3.8 -14.8 -15.8 -29.7 -41.9 -37.3 -65.3 -3.8 -11.8 -7.1 -25.4 -7.1 -29.6 0 -1.1 -0.3 -2 -0.6 -2 -1.5 0 -15 11.8 -22 19.3 -24.4 26 -41.3 58.7 -46.8 91 l-0.7 3.7 5.3 -2.1 c2.9 -1.2 8.5 -3.2 12.3 -4.5z m328 -6 c-5.9 -24.3 -15.5 -44.8 -31.1 -66.1 -6.5 -8.8 -28.9 -31.7 -30.3 -30.9 -0.5 0.3 -1.2 2.7 -1.5 5.3 -1.1 7.5 -6.3 26.6 -9.6 34.8 -8.2 20.7 -22.3 43.7 -34.8 56.7 l-4.6 4.7 3.5 -0.9 c15.4 -4.1 53.7 -5.4 73.8 -2.4 11.4 1.6 22.3 4.2 31.1 7.2 3 1.1 5.6 1.9 5.7 1.8 0.2 -0.1 -0.8 -4.7 -2.2 -10.2z m-150.6 -37.1 c12.5 -26 32.8 -50.8 56.3 -68.7 7.2 -5.4 9.4 -7.6 8.5 -8.4 -0.6 -0.5 -5.2 -3 -10.2 -5.5 -42.7 -21.3 -93.3 -23.4 -137.9 -5.7 -7.8 3.1 -17.6 7.7 -17.6 8.4 0 0.2 2.8 2 6.3 4.1 17.3 10.7 37.9 29.1 49.9 44.8 12.4 16.2 23.3 36.3 29 53.8 l3.2 9.9 4.2 -12 c2.3 -6.7 6 -15.9 8.3 -20.7z"/>
 </g>
 <g fill="#ed1c24">
  <path d="M192.8 186.6 c-1.6 -0.8 -2.4 -2.2 -2.6 -4.4 -0.4 -4.3 1.2 -6.2 5.3 -6.2 3.7 0 5.8 1.9 5.8 5.5 0 4.7 -4.2 7.2 -8.5 5.1z"/>
 </g>
 <g fill="#121212">
  <path d="M167 366.4 c-1.4 -0.2 -6.5 -1.1 -11.4 -2 -9.6 -1.7 -21.7 -5 -30.9 -8.4 l-5.8 -2.2 8.3 -6.2 c32.2 -24.4 57.1 -62.1 67.4 -102 l2.8 -10.9 2.2 8.4 c10.5 39.2 32.7 73.7 63.6 98.7 l7 5.6 -6.7 3.4 c-8.7 4.3 -27.3 10.5 -40 13.2 -8.1 1.8 -14.1 2.3 -32 2.5 -12.1 0.2 -23.1 0.1 -24.5 -0.1z"/>
  <path d="M95.9 341.8 c-14.1 -8.5 -21.5 -14.3 -34 -26.8 -28.5 -28.3 -45.2 -61 -51.3 -100.6 -1.5 -9.4 -2.2 -33.4 -1.1 -33.4 0.3 0 2.3 1.1 4.3 2.4 12.2 7.6 33.2 16.3 50.1 20.6 28.9 7.3 66.1 6.7 95.6 -1.4 4.9 -1.4 9 -2.4 9.2 -2.3 0.1 0.1 -3.2 3.6 -7.3 7.7 -33.3 33.1 -53.4 81.1 -53.4 127.4 0 6.9 -0.4 12.6 -0.9 12.6 -0.4 0 -5.5 -2.8 -11.2 -6.2z"/>
  <path d="M116 334.3 c0 -42.7 18 -85.8 50 -119.6 7.1 -7.5 22.4 -20.6 25.2 -21.6 1.9 -0.6 0.2 29.9 -2.2 41.4 -8.9 42.3 -33.1 81.1 -66.7 106.8 l-6.3 4.8 0 -11.8z"/>
  <path d="M281 329.9 c0 -42.9 -19.6 -90.1 -51.1 -122.6 -4.4 -4.6 -7.7 -8.3 -7.3 -8.3 0.3 0 3.2 0.6 6.3 1.4 18.1 4.7 50.8 6.1 70.5 3 20.8 -3.2 39.1 -9 56.8 -18.1 5.1 -2.6 9.7 -5 10.2 -5.2 1.7 -0.7 -0.1 32.8 -2.4 43.4 -7.7 36.2 -25.4 68.2 -51.8 93.7 -8.7 8.4 -22.7 19.5 -28.4 22.4 l-2.8 1.5 0 -11.2z"/>
  <path d="M263.9 331.7 c-38.3 -33.6 -61.9 -82.8 -61.9 -129.2 l0 -9.7 4.3 3.3 c7.2 5.6 25 24 31 32.2 22.1 29.9 33.9 62.3 35.4 96.5 0.3 7.8 0.4 14.2 0.1 14.2 -0.3 0 -4.3 -3.3 -8.9 -7.3z"/>
  <path d="M87.5 200.4 c-10.7 -1.6 -25.5 -5 -34.9 -8.1 -10.7 -3.4 -36.6 -15.7 -36.6 -17.3 0 -0.9 11.7 -5.9 21 -9.2 29.2 -10.1 68.7 -11.7 99.5 -4.2 11.9 2.9 24.6 7.6 29.3 10.8 2.6 1.8 8 5.2 12.1 7.6 l7.3 4.4 -3.7 1.8 c-5.8 3 -26.1 9.5 -37 11.8 -8.1 1.8 -14.1 2.3 -32 2.5 -12.1 0.2 -23.3 0.1 -25 -0.1z"/>
  <path d="M250.5 196.4 c-17.7 -2.7 -46.1 -10.5 -44.9 -12.5 1.7 -2.8 26.1 -13.4 40.3 -17.5 27.3 -7.9 63.7 -8.6 91.6 -1.8 9.1 2.3 24.5 7.5 24.5 8.3 0 1.4 -25.3 12.9 -35.1 16 -19.3 6.1 -27.4 7.3 -51.4 7.6 -12.1 0.2 -23.3 0.1 -25 -0.1z"/>
  <path d="M176.8 168.1 c-13.7 -7.1 -22.3 -13.7 -34 -25.9 -26.3 -27.6 -43 -61.7 -48.4 -98.6 l-0.7 -4.9 5.9 3.2 c44.6 25 77.2 68.1 88.2 116.6 2.8 12.5 3.4 16.5 2.5 16.4 -0.4 -0.1 -6.5 -3.1 -13.5 -6.8z"/>
  <path d="M203.5 169.9 c6.3 -39.5 22.9 -72.2 51 -100.5 9 -9.2 29.3 -25.4 31.6 -25.4 1.3 0 1.1 2 -1.2 13.3 -7.3 36.2 -25.5 69 -52.7 94.8 -9.3 8.9 -23.6 20 -27.6 21.5 -1.7 0.6 -1.8 0.3 -1.1 -3.7z"/>
  <path d="M10.4 162.9 c3.8 -29.1 15.9 -58.1 35 -83.4 7.5 -10 23.9 -26.5 33.1 -33.4 l7 -5.3 0.7 3.4 c0.4 1.8 1.4 7.1 2.3 11.8 6.2 32.4 24.5 67 48.4 91.8 3.8 3.9 6.7 7.2 6.4 7.2 -0.3 0 -3.1 -0.7 -6.2 -1.4 -13.7 -3.6 -28.1 -4.8 -48.1 -4.3 -29.7 0.7 -48.4 5.2 -77.9 18.4 -1.2 0.5 -1.3 -0.3 -0.7 -4.8z"/>
  <path d="M356 161.9 c-20.4 -7.1 -37.7 -9.9 -61 -9.9 -21.5 0 -35.7 2.1 -58.4 8.8 -1.1 0.3 1.8 -3.3 6.3 -7.9 26.8 -27.1 44.7 -62.3 51.2 -100.6 0.7 -4 1.4 -7.3 1.7 -7.3 1.3 0 15.2 12.3 22.2 19.7 17.6 18.6 31.3 40.9 39.3 63.8 5 14.4 9.9 36.6 8 36.4 -0.4 0 -4.6 -1.4 -9.3 -3z"/>
  <path d="M195.1 154.5 c-0.7 -3.3 -3.1 -11.1 -5.3 -17.3 -14.1 -41.1 -42.9 -76.2 -81.6 -99.5 l-9.3 -5.6 8 -4.1 c26.3 -13.2 51 -19 81 -19 22.9 0 40.4 2.9 60.8 10.1 9 3.2 23.5 10.1 30.6 14.6 l3.9 2.5 -5.2 3.4 c-27.7 18.2 -52.1 46.3 -66.5 76.6 -4.1 8.6 -10.6 27.3 -13.8 39.3 l-1.3 5 -1.3 -6z"/>
 </g>
</svg>