<?xml version="1.0" standalone="no"?><!DOCTYPE svg PUBLIC "-//W3C//DTD SVG 1.1//EN" "http://www.w3.org/Graphics/SVG/1.1/DTD/svg11.dtd"><svg t="1683682352323" class="icon" viewBox="0 0 1024 1024" version="1.1" xmlns="http://www.w3.org/2000/svg" p-id="3200" xmlns:xlink="http://www.w3.org/1999/xlink" width="200" height="200"><path d="M726.976 274.432a16 16 0 0 0-22.656 0L512 466.752l-192.32-192.32a16 16 0 0 0-22.624 0l-22.656 22.624a16 16 0 0 0 0 22.624l192.32 192.32-192.32 192.32a16 16 0 0 0 0 22.656l22.656 22.624a16 16 0 0 0 22.624 0l192.32-192.32 192.32 192.32a16 16 0 0 0 22.656 0l22.624-22.624a16 16 0 0 0 0-22.624L557.28 512l192.32-192.352a16 16 0 0 0 0-22.624l-22.624-22.624z" fill="#ffffff" p-id="3201"></path></svg>