<?xml version="1.0" standalone="no"?><!DOCTYPE svg PUBLIC "-//W3C//DTD SVG 1.1//EN" "http://www.w3.org/Graphics/SVG/1.1/DTD/svg11.dtd"><svg t="1684380952777" class="icon" viewBox="0 0 1024 1024" version="1.1" xmlns="http://www.w3.org/2000/svg" p-id="6745" xmlns:xlink="http://www.w3.org/1999/xlink" width="200" height="200"><path d="M994.087177 219.337029l-108.036923 88.393846-468.906481 491.844731h-9.597594l-2.495375-0.543863-197.838417 69.90248L161.815765 828.592334l61.680541-209.451506 0.383904-1.983503v-11.61309l490.341108-470.282135L806.326234 26.905257a100.806735 100.806735 0 0 1 139.197114 0l48.691797 48.851756a103.973942 103.973942 0 0 1-0.127968 143.580016z m-745.189237 563.058883l86.378351-34.167437-57.585567-57.585567z m60.176918-153.561514l84.714768 84.970705L829.456437 274.267262 747.460988 191.951892z m638.559961-506.657019L899.102982 73.581559a32.919749 32.919749 0 0 0-46.420366 0L787.131045 138.909186l95.112163 95.40009 65.327627-65.487587a33.047717 33.047717 0 0 0 0.095976-46.548334zM498.659344 191.152093H158.712543A104.037925 104.037925 0 0 0 64.112252 281.81737v596.74644C64.112252 922.424817 114.947511 959.75946 158.712543 959.75946h594.730945a79.500075 79.500075 0 0 0 77.644541-81.131666V470.762015a31.991982 31.991982 0 1 1 63.983964 0v407.801795A133.854453 133.854453 0 0 1 753.443488 1023.743424H158.712543C71.278456 1023.743424 0.128288 966.317817 0.128288 878.56381V281.81737a155.321073 155.321073 0 0 1 158.584255-154.713225h339.946801a32.023974 32.023974 0 1 1 0 64.047948z" fill="#ffffff" p-id="6746"></path></svg>